<svg xmlns="http://www.w3.org/2000/svg" xmlns:xlink="http://www.w3.org/1999/xlink"><symbol id="breadcrumbs-arrow"><path d="M6.915 4.969 2.165.719c-.25-.25-.75-.25-1.125 0s-.25.75 0 1l4.125 3.75-4 3.75c-.25.25-.25.75 0 1 0 .125.375.25.5.25s.375-.125.5-.25l4.75-4.25a.585.585 0 0 0 0-1Z" fill="#fff"/></symbol><symbol id="breadcrumbs-home"><path d="m6.5.5-6 5.8v6.2h12V6.3L6.5.5Zm5 11h-10V6.7l5-4.8 5 4.8v4.8Z" fill="#fff"/><path d="M4.5 10.5h1V8h2v2.5h1V7h-4v3.5Z" fill="#fff"/></symbol><symbol id="check-icon"><path d="M11 .5 4.5 7.9 1.1 4 0 5.2l4.5 5.2 7.7-8.6L11 .5Z" fill="#3F5E72"/></symbol><symbol id="icon-heart"><path d="M8.9 17c-.3 0-.6-.1-.8-.4-5.4-6.1-6.7-7.5-7-7.9C.4 7.8 0 6.6 0 5.4 0 2.4 2.4 0 5.5 0 6.8 0 8 .5 9 1.3 10 .5 11.3 0 12.5 0c3 0 5.5 2.4 5.5 5.4 0 1.3-.5 2.5-1.3 3.4l-7 7.9c-.2.2-.4.3-.8.3Zm-6-9.5c.3.4 3.5 4 6.1 6.9l6.2-7c.5-.5.7-1.2.7-2 0-1.8-1.5-3.3-3.3-3.3-1 0-2 .5-2.7 1.3-.3.3-.6.4-.9.4-.3 0-.6-.2-.8-.4-.7-.8-1.7-1.3-2.7-1.3-1.8 0-3.3 1.5-3.3 3.3-.1.9.3 1.6.7 2.1-.1 0-.1 0 0 0Z" fill="#000"/></symbol><symbol id="icon-search"><path d="m18.5 17.008-3.7-3.68c1-1.292 1.7-2.983 1.7-4.872C16.5 4.08 12.9.5 8.5.5s-8 3.68-8 8.055c0 4.376 3.6 7.956 8 7.956 1.8 0 3.5-.597 4.9-1.69l3.7 3.679 1.4-1.492Zm-10-2.486c-3.3 0-6-2.685-6-5.967 0-3.282 2.7-5.967 6-5.967s6 2.685 6 5.967c0 3.282-2.7 5.967-6 5.967Z" fill="#000"/></symbol><symbol id="icon-star"><path d="m9 0 2.1 6.5H18l-5.6 4 2.2 6.5L9 13l-5.6 4 2.2-6.5-5.6-4h6.9L9 0Z" fill="#83B3D3"/></symbol><symbol id="logo-htmlacademy"><path d="M0 13.256v2.6h2.5v-2.6H0ZM11.6 4.856c-1.6 0-2.8.7-3.6 1.7h-.1v-6.2h-2v15.5h2v-5.3c0-2.1 1.3-3.6 3.3-3.6 1.8 0 2.9 1.4 2.9 3.2v5.7h2v-6.1c.1-3-1.8-4.9-4.5-4.9ZM26.6 5.156h-4.8v-3.7h-2v3.8h-1.9v2h1.9v6c0 1.7 1 2.7 2.7 2.7h4.1v-2h-3.7c-.7 0-1.1-.4-1.1-1.1v-5.7h4.8v-2ZM41.1 4.956c-1.6 0-2.9.8-3.5 2.1h-.1c-.6-1.2-1.8-2.1-3.4-2.1-1.4 0-2.5.8-3.1 1.8h-.1v-1.6H29v10.6h2v-5.4c0-2 1-3.5 2.6-3.5 1.5 0 2.4 1 2.4 2.6v6.3h2v-5.6c0-2.4 1.4-3.3 2.6-3.3 1.5 0 2.4 1 2.4 2.6v6.3h2v-6.5c.1-2.5-1.4-4.3-3.9-4.3ZM47.8 13.056c0 1.7 1 2.7 2.8 2.7h2v-2h-1.7c-.7 0-1.1-.4-1.1-1.1V.356h-2v12.7ZM28.9 20.056c-.9-1.1-2.2-1.8-3.9-1.8-3.1 0-5.4 2.3-5.4 5.6s2.3 5.6 5.4 5.6c1.8 0 3-.8 3.8-1.9h.1v1.6h2v-10.6h-2v1.5Zm-3.6 7.4c-2.2 0-3.6-1.6-3.6-3.6s1.4-3.6 3.6-3.6 3.6 1.6 3.6 3.6c0 1.9-1.4 3.6-3.6 3.6ZM44.2 22.356c-.5-2.4-2.6-4.1-5.4-4.1-3.4 0-5.6 2.5-5.6 5.6 0 3.1 2.2 5.6 5.6 5.6 2.8 0 4.9-1.8 5.4-4.2h-2.1c-.4 1.3-1.7 2.3-3.3 2.3-2.2 0-3.6-1.6-3.6-3.6s1.4-3.6 3.6-3.6c1.6 0 2.8 1 3.3 2.2h2.1v-.2ZM55.1 20.056c-.9-1.1-2.2-1.8-3.9-1.8-3.1 0-5.4 2.3-5.4 5.6s2.3 5.6 5.4 5.6c1.8 0 3-.8 3.8-1.9h.1v1.6h2v-10.6h-2v1.5Zm-3.6 7.4c-2.2 0-3.6-1.6-3.6-3.6s1.4-3.6 3.6-3.6 3.6 1.6 3.6 3.6c0 1.9-1.5 3.6-3.6 3.6ZM68.7 20.156c-.9-1.1-2.2-1.9-3.9-1.9-3.1 0-5.4 2.3-5.4 5.6s2.2 5.6 5.4 5.6c1.7 0 3-.8 3.8-1.8h.1v1.5h2v-15.4h-2v6.4Zm-3.6 7.3c-2.2 0-3.6-1.6-3.6-3.6s1.4-3.6 3.6-3.6 3.6 1.6 3.6 3.6c-.1 2-1.5 3.6-3.6 3.6ZM78.3 18.256c-3.3 0-5.5 2.5-5.5 5.6 0 3 2.1 5.6 5.5 5.6 2.5 0 4.5-1.3 5.2-3.6h-2.1c-.5 1-1.6 1.6-3 1.6-1.9 0-3.3-1.3-3.4-2.9h8.8c.2-3.6-2-6.3-5.5-6.3Zm0 1.9c1.7 0 3 1 3.3 2.6h-6.5c.3-1.5 1.5-2.6 3.2-2.6ZM98.2 18.256c-1.6 0-2.9.8-3.6 2h-.1c-.6-1.2-1.8-2-3.4-2-1.4 0-2.5.7-3.1 1.8v-1.5h-1.9v10.6h2v-5.4c0-2 1-3.4 2.6-3.5 1.5 0 2.4 1 2.4 2.6v6.3h2v-5.6c0-2.4 1.4-3.3 2.6-3.3 1.5 0 2.4 1 2.4 2.6v6.3h2v-6.5c.1-2.6-1.4-4.4-3.9-4.4ZM109.4 27.356l-3.6-8.9h-2.2l4.8 11.6c-.3.9-.7 1.2-1.7 1.2h-2.5v2h2.5c1.8 0 2.8-.8 3.5-2.6l4.7-12.2h-2.1l-3.4 8.9Z" fill="#000"/></symbol><symbol id="modal-close-cross"><path d="M14.49 1.783 13.199.49 7.49 6.198 1.783.491.49 1.783 6.198 7.49.49 13.198l1.293 1.293L7.49 8.783l5.708 5.708 1.293-1.293-5.708-5.707 5.708-5.708Z" fill="#000"/></symbol><symbol id="services-food"><path d="M70.576 46.7H4.61C2.305 46.7.5 48.6.5 51v3.5c0 2.4 1.905 4.3 4.11 4.3h.903v1.1c0 5.5 4.31 10.1 9.624 10.1h44.712c5.313 0 9.624-4.5 9.624-10.1v-1.1h.902c2.306 0 4.11-1.9 4.11-4.3V51c.201-2.3-1.704-4.3-3.91-4.3Zm-3.91 13.2c0 3.9-3.008 7-6.717 7H15.137c-3.71 0-6.717-3.2-6.717-7v-1.1h58.246v1.1Zm5.113-5.4c0 .7-.602 1.3-1.203 1.3H4.51c-.702 0-1.203-.6-1.203-1.3V51c0-.7.602-1.3 1.203-1.3h65.965c.702 0 1.203.6 1.203 1.3.1 0 .1 3.5.1 3.5ZM16.14 38.4l5.413 4.1 5.313-4.1 5.313 4.1 5.314-4.1 5.413 4.1 5.314-4.1 5.313 4.1 5.413-4.1 5.314 4.1 6.215-4.7-1.704-2.5-4.511 3.4-5.314-4.1-5.413 4.1-5.313-4.1-5.314 4.1-5.413-4.1-5.314 4.1-5.313-4.1-5.313 4.1-5.414-4.1-5.313 4.1-4.511-3.4-1.705 2.5 6.216 4.7 5.313-4.1ZM8.52 31.5h60.953c0-.6.1-1.2.1-1.9v-1.2C68.871 12.7 54.836 0 37.593 0 20.249 0 6.214 12.7 5.513 28.5v1.2c0 .6-.005 1.2.095 1.8H8.52ZM37.593 3c15.64 0 28.471 11.3 29.073 25.5H8.52C9.122 14.4 21.954 3 37.593 3Z" fill="#83B3D3"/><path d="M37.593 17.3c1.052 0 1.905-.895 1.905-2s-.853-2-1.905-2-1.905.895-1.905 2 .853 2 1.905 2ZM29.773 12.2c1.052 0 1.905-.895 1.905-2s-.853-2-1.905-2-1.904.895-1.904 2 .852 2 1.904 2ZM45.312 12.2c1.052 0 1.905-.895 1.905-2s-.853-2-1.905-2-1.904.895-1.904 2 .852 2 1.904 2Z" fill="#83B3D3"/></symbol><symbol id="services-living"><path d="M30.119 65h16.064V41.2H30.119V65Zm2.911-20.9h10.14v18H33.03v-18Z" fill="#83B3D3"/><path d="m73.392 39.3 2.108-2.1-9.94-9.9V0H51.604v13.6L37.95 0 .5 37.2l2.108 2.1 7.832-7.8v37.6H6.424V72H70.58v-2.9h-5.12V31.5l7.932 7.8ZM62.548 69.1H13.351V28.5L37.95 4.1l24.598 24.4v40.6Zm0-44.7-7.931-7.9V2.9h7.931v21.5Z" fill="#83B3D3"/><path d="M30.32 27.1c0 4.3 3.513 7.7 7.73 7.7 4.318 0 7.832-3.5 7.832-7.7 0-4.3-3.514-7.7-7.832-7.7-4.217 0-7.73 3.4-7.73 7.7Zm7.83-5c2.711 0 5.02 2.2 5.02 4.9s-2.208 4.9-5.02 4.9c-2.71 0-5.02-2.2-5.02-4.9s2.21-4.9 5.02-4.9ZM20.48 41.2h-3.012v3.9h3.012v-3.9ZM26.404 41.2h-3.012v3.9h3.012v-3.9ZM20.48 47.2h-3.012v3.9h3.012v-3.9ZM26.404 47.2h-3.012v3.9h3.012v-3.9ZM52.508 41.2h-3.012v3.9h3.012v-3.9ZM58.432 41.2H55.42v3.9h3.012v-3.9ZM52.508 47.2h-3.012v3.9h3.012v-3.9ZM58.432 47.2H55.42v3.9h3.012v-3.9Z" fill="#83B3D3"/></symbol><symbol id="services-souvenir"><path d="M61.6 22.462H36.8c13.8-6.904 14.9-11.307 14.4-13.71-1.2-4.002-5.7-7.004-10-5.403-5.6 2.102-7.1 10.407-8.6 16.412-2-6.105-3.8-13.81-8.2-17.713-1.3-1.1-3.1-2.301-5.8-2.001-4 .4-9.8 5.404-7.5 11.008 2.3 5.403 9.7 8.806 14.6 11.508H3.4c-1.6 0-2.9 1.3-2.9 2.902v11.308c0 1.6 1.3 2.901 2.9 2.901h.3V76h57.8V39.574h.1c1.6 0 2.9-1.3 2.9-2.902V25.365c0-1.602-1.3-2.902-2.9-2.902ZM42.9 5.851c2.1-.3 5 1.3 5.3 3.202.4 2.802-3.4 5.304-5.1 6.405-2.5 1.7-4.9 2.601-7.3 4.102.9-3.702 2.5-13.009 7.1-13.71ZM20 15.858c-2.2-1.501-6.5-4.403-6.4-7.806.1-3.602 5.7-6.604 8.8-3.902 3.9 3.402 5.7 11.107 7.1 16.611-3.2-1.5-6.3-2.802-9.5-4.903Zm6 57.14H6.6V39.574H26v33.424Zm0-36.526H3.5V25.465H26v11.007Zm10.2 0v36.526H29V25.565h7.2v10.907Zm22.3 36.526H39.1V39.574h19.4v33.424Zm2.9-36.526H39.1V25.465h22.3v11.007Z" fill="#83B3D3"/></symbol><symbol id="social-telegram"><path d="M16.785.956.84 7.104C-.248 7.541-.24 8.148.64 8.42l4.094 1.277 9.472-5.976c.448-.272.857-.126.52.173l-7.673 6.925H7.05l.002.001-.283 4.22c.414 0 .597-.19.829-.414l1.988-1.934 4.136 3.055c.762.42 1.31.205 1.5-.706l2.715-12.795c.278-1.114-.425-1.618-1.153-1.29Z" fill="#83B3D3"/></symbol><symbol id="social-vk"><path fill-rule="evenodd" clip-rule="evenodd" d="M24.116 1.804c.166-.546 0-.948-.795-.948h-2.625c-.668 0-.976.347-1.143.73 0 0-1.335 3.196-3.226 5.272-.612.602-.89.793-1.224.793-.167 0-.418-.19-.418-.738V1.804c0-.656-.184-.948-.74-.948H9.817c-.417 0-.668.304-.668.593 0 .621.946.765 1.043 2.513V7.76c0 .833-.153.984-.487.984-.89 0-3.055-3.21-4.34-6.885-.249-.715-.5-1.003-1.172-1.003H1.566c-.75 0-.9.347-.9.73 0 .682.89 4.07 4.145 8.551 2.17 3.06 5.225 4.72 8.008 4.72 1.67 0 1.875-.369 1.875-1.004V11.54c0-.737.158-.884.687-.884.39 0 1.057.192 2.615 1.667 1.78 1.75 2.073 2.533 3.075 2.533h2.625c.75 0 1.126-.368.91-1.096-.238-.724-1.088-1.775-2.215-3.022-.612-.71-1.53-1.475-1.809-1.858-.389-.49-.278-.71 0-1.147 0 0 3.2-4.426 3.533-5.929h.001Z" fill="#83B3D3"/></symbol><symbol id="social-youtube"><path d="M18.94.356H3.507C1.647.356.333 1.95.333 3.756V13.85c0 1.913 1.314 3.506 3.174 3.506H19.16c1.642 0 3.174-1.593 3.174-3.4v-10.2c-.219-1.806-1.532-3.4-3.393-3.4ZM7.995 12.894V4.819l7.333 4.037-7.333 4.038Z" fill="#83B3D3"/></symbol><symbol id="sort-big"><path d="M16 12H0v2h16v-2ZM14 2v6H2V2h12Zm2-2H0v10h16V0Z" fill="#000"/></symbol><symbol id="sort-list"><path d="M2 0H0v2h2V0ZM16 0H4v2h12V0ZM2 4H0v2h2V4ZM16 4H4v2h12V4ZM2 8H0v2h2V8ZM16 8H4v2h12V8ZM2 12H0v2h2v-2ZM16 12H4v2h12v-2Z" fill="#000"/></symbol><symbol id="sort-small"><path d="M4 0H0v6h4V0ZM16 0h-4v6h4V0ZM10 0H6v6h4V0ZM4 8H0v6h4V8ZM16 8h-4v6h4V8ZM10 8H6v6h4V8Z" fill="#000"/></symbol></svg>
